<svg width="31" height="31" viewBox="0 0 31 31" fill="none" xmlns="http://www.w3.org/2000/svg">
<path d="M9.15228 7.47042C9.58384 9.91794 11.9178 11.5522 14.3653 11.1206C16.8129 10.6891 18.4471 8.35511 18.0155 5.90759C17.584 3.46006 15.25 1.8258 12.8025 2.25737C10.355 2.68893 8.72071 5.0229 9.15228 7.47042Z" stroke="#FAFAFA" stroke-width="2" stroke-linecap="round" stroke-linejoin="round"/>
<path d="M3.73345 25.6883C4.16501 28.1358 6.49906 29.7701 8.94651 29.3385C11.394 28.907 13.0283 26.5729 12.5967 24.1255C12.1652 21.678 9.83112 20.0437 7.38367 20.4753C4.93623 20.9068 3.3019 23.2409 3.73345 25.6883Z" stroke="#FAFAFA" stroke-width="2" stroke-linecap="round" stroke-linejoin="round"/>
<path d="M20.4752 22.7362C20.9067 25.1836 23.2407 26.8179 25.6882 26.3864C28.1357 25.9548 29.77 23.6208 29.3384 21.1733C28.9069 18.7259 26.5729 17.0916 24.1254 17.5231C21.6778 17.9547 20.0436 20.2887 20.4752 22.7362Z" stroke="#FAFAFA" stroke-width="2" stroke-linecap="round" stroke-linejoin="round"/>
<path d="M16.2516 10.3007L22.2391 18.3432" stroke="#FAFAFA" stroke-width="2" stroke-linecap="round" stroke-linejoin="round"/>
<path d="M12.3124 10.9954L9.43663 20.6007" stroke="#FAFAFA" stroke-width="2" stroke-linecap="round" stroke-linejoin="round"/>
</svg>
