<svg width="31" height="31" viewBox="0 0 31 31" fill="none" xmlns="http://www.w3.org/2000/svg">
<path d="M9.31073 7.62899C9.74229 10.0765 12.0763 11.7108 14.5238 11.2792C16.9713 10.8476 18.6056 8.51368 18.174 6.06616C17.7424 3.61863 15.4085 1.98437 12.9609 2.41594C10.5134 2.8475 8.87916 5.18147 9.31073 7.62899Z" stroke="#081C29" stroke-opacity="0.88" stroke-width="2" stroke-linecap="round" stroke-linejoin="round"/>
<path d="M3.8919 25.8468C4.32345 28.2942 6.65751 29.9285 9.10495 29.497C11.5524 29.0654 13.1867 26.7314 12.7552 24.2839C12.3236 21.8365 9.98956 20.2022 7.54212 20.6337C5.09468 21.0653 3.46035 23.3993 3.8919 25.8468Z" stroke="#081C29" stroke-opacity="0.88" stroke-width="2" stroke-linecap="round" stroke-linejoin="round"/>
<path d="M20.6336 22.8946C21.0652 25.3421 23.3991 26.9764 25.8467 26.5448C28.2942 26.1133 29.9284 23.7792 29.4969 21.3318C29.0653 18.8843 26.7313 17.25 24.2838 17.6816C21.8363 18.1131 20.2021 20.4472 20.6336 22.8946Z" stroke="#081C29" stroke-opacity="0.88" stroke-width="2" stroke-linecap="round" stroke-linejoin="round"/>
<path d="M16.41 10.4592L22.3976 18.5016" stroke="#081C29" stroke-opacity="0.88" stroke-width="2" stroke-linecap="round" stroke-linejoin="round"/>
<path d="M12.4708 11.1538L9.59508 20.7591" stroke="#081C29" stroke-opacity="0.88" stroke-width="2" stroke-linecap="round" stroke-linejoin="round"/>
</svg>
