<svg width="31" height="31" viewBox="0 0 31 31" fill="none" xmlns="http://www.w3.org/2000/svg">
<g clip-path="url(#clip0_190_199)">
<path d="M16.5343 14.4382C15.5029 12.8364 14.9051 10.9941 14.7997 9.09185C14.6942 7.1896 15.0846 5.29257 15.9327 3.58655C14.6382 3.8267 13.4016 4.31183 12.2891 5.0159C10.0171 6.49132 8.42433 8.80885 7.86111 11.4587C7.29786 14.1084 7.81033 16.8735 9.28576 19.1454C10.7612 21.4174 13.0787 23.0102 15.7285 23.5734C18.3783 24.1367 21.1433 23.6242 23.4153 22.1487C24.5275 21.4152 25.4876 20.4736 26.2426 19.3758C24.335 19.4664 22.4367 19.0587 20.7344 18.1929C19.0322 17.3272 17.5846 16.0331 16.5343 14.4382Z" stroke="#081C29" stroke-opacity="0.88" stroke-width="2" stroke-linecap="round" stroke-linejoin="round"/>
</g>
<defs>
<clipPath id="clip0_190_199">
<rect width="22" height="22" fill="white" transform="translate(0 12.0597) rotate(-33)"/>
</clipPath>
</defs>
</svg>
