<svg width="80" height="80" viewBox="0 0 80 80" fill="none" xmlns="http://www.w3.org/2000/svg">
<mask id="mask0_123_156" style="mask-type:luminance" maskUnits="userSpaceOnUse" x="0" y="0" width="80" height="80">
<path d="M0 0H80V80H0V0Z" fill="white"/>
</mask>
<g mask="url(#mask0_123_156)">
<path d="M78.4906 36.4382L43.5631 1.51076C43.5035 1.45114 43.4426 1.39284 43.3801 1.33629C43.3176 1.27974 43.2539 1.22451 43.1885 1.17102C43.1235 1.11754 43.057 1.06582 42.9893 1.0154C42.9216 0.965212 42.8528 0.916772 42.7826 0.869867C42.7125 0.822962 42.6412 0.777811 42.5689 0.734631C42.4968 0.691233 42.4234 0.649589 42.3491 0.609917C42.2748 0.570025 42.1994 0.532107 42.1231 0.496161C42.047 0.459995 41.9699 0.426022 41.8921 0.393583C41.814 0.361363 41.7356 0.331116 41.6562 0.302622C41.5767 0.274128 41.4967 0.247826 41.416 0.223278C41.3354 0.198729 41.2543 0.176373 41.1723 0.15577C41.0905 0.135386 41.0083 0.116974 40.9257 0.100316C40.8431 0.0838776 40.76 0.0696307 40.6765 0.0571373C40.5932 0.0448631 40.5095 0.0345614 40.4255 0.0262325C40.3416 0.0179035 40.2576 0.0117664 40.1735 0.00760196C40.0893 0.00343748 40.0049 0.00146484 39.9205 0.00146484C39.8364 0.00146484 39.752 0.00343748 39.6678 0.00760196C39.5836 0.0117664 39.4997 0.0179035 39.4157 0.0262325C39.3318 0.0345614 39.2481 0.0448631 39.1648 0.0571373C39.0813 0.0696307 38.9982 0.0838776 38.9156 0.100316C38.8329 0.116974 38.7507 0.135386 38.669 0.15577C38.587 0.176373 38.5059 0.198729 38.4253 0.223278C38.3446 0.247826 38.2646 0.274128 38.185 0.302622C38.1057 0.331116 38.027 0.361363 37.9492 0.393583C37.8714 0.426022 37.7942 0.459995 37.7182 0.496161C37.6419 0.532107 37.5665 0.570025 37.4922 0.609917C37.4179 0.649589 37.3445 0.691233 37.2724 0.734631C37.2 0.777811 37.1288 0.822962 37.0587 0.869867C36.9885 0.916772 36.9197 0.965212 36.852 1.0154C36.7842 1.06582 36.7178 1.11754 36.6527 1.17102C36.5874 1.22451 36.5236 1.27974 36.4612 1.33629C36.3987 1.39284 36.3378 1.45114 36.2781 1.51076L29.0282 8.76067L38.2282 17.9607C40.3681 17.2106 42.8181 17.7233 44.5231 19.4283C44.624 19.5291 44.7211 19.6337 44.8147 19.7415C44.9083 19.8491 44.9979 19.9603 45.0836 20.0742C45.1695 20.1884 45.2511 20.3053 45.3286 20.4251C45.4062 20.5448 45.4797 20.6671 45.5487 20.7921C45.6177 20.917 45.6824 21.0441 45.7425 21.1737C45.8027 21.303 45.8582 21.4345 45.9093 21.5677C45.9601 21.701 46.0064 21.836 46.048 21.9726C46.0896 22.1091 46.1263 22.2468 46.1583 22.386C46.19 22.5251 46.2172 22.6652 46.2391 22.8061C46.2613 22.9471 46.2786 23.0889 46.2906 23.2309C46.3029 23.3732 46.3102 23.5156 46.3126 23.6583C46.3148 23.801 46.3119 23.9437 46.3042 24.0862C46.2966 24.2286 46.2838 24.3709 46.2663 24.5125C46.2486 24.6541 46.226 24.7948 46.1986 24.9348C46.171 25.0749 46.1387 25.2139 46.1015 25.3517C46.0642 25.4896 46.0224 25.6259 45.9757 25.7607L54.8432 34.6282C56.9881 33.8882 59.4631 34.3656 61.1756 36.0831C61.2466 36.1541 61.3158 36.2267 61.3834 36.3012C61.4506 36.3755 61.5162 36.4514 61.58 36.5289C61.6437 36.6065 61.7056 36.6857 61.7652 36.7663C61.825 36.847 61.8829 36.929 61.9388 37.0125C61.9944 37.0958 62.0481 37.1806 62.0999 37.2667C62.1514 37.3529 62.2009 37.4401 62.2483 37.5286C62.2956 37.6172 62.3407 37.7066 62.3837 37.7974C62.4267 37.8881 62.4672 37.9799 62.5058 38.0727C62.5442 38.1654 62.5803 38.259 62.6141 38.3534C62.648 38.4479 62.6794 38.5432 62.7085 38.6392C62.7379 38.7352 62.7646 38.8321 62.789 38.9294C62.8133 39.0268 62.8354 39.1247 62.8549 39.2231C62.8747 39.3216 62.8918 39.4204 62.9065 39.5197C62.9211 39.619 62.9336 39.7187 62.9435 39.8184C62.9531 39.9184 62.9606 40.0186 62.9656 40.1187C62.9705 40.2189 62.9731 40.3193 62.9731 40.4197C62.9731 40.52 62.9705 40.6204 62.9656 40.7206C62.9608 40.821 62.9534 40.9209 62.9435 41.0209C62.9336 41.1208 62.9214 41.2203 62.9067 41.3196C62.892 41.4189 62.8749 41.5178 62.8552 41.6162C62.8357 41.7148 62.8137 41.8126 62.7892 41.9099C62.7649 42.0074 62.7381 42.1041 62.709 42.2001C62.6798 42.2961 62.6485 42.3914 62.6145 42.4859C62.5808 42.5806 62.5446 42.6742 62.5062 42.7669C62.4679 42.8596 62.4271 42.9512 62.3841 43.042C62.3414 43.1327 62.2963 43.2224 62.2489 43.3109C62.2016 43.3995 62.152 43.4867 62.1005 43.5728C62.0488 43.659 61.9951 43.7438 61.9394 43.8273C61.8835 43.9106 61.8259 43.9928 61.766 44.0732C61.7062 44.1539 61.6444 44.233 61.5808 44.3106C61.5171 44.3882 61.4515 44.4642 61.384 44.5385C61.3167 44.6129 61.2475 44.6856 61.1764 44.7566C61.1054 44.8274 61.0329 44.8967 60.9584 44.9642C60.8841 45.0315 60.808 45.097 60.7304 45.1606C60.6528 45.2244 60.5737 45.2862 60.493 45.3458C60.4124 45.4056 60.3304 45.4635 60.2469 45.5192C60.1634 45.5748 60.0788 45.6285 59.9926 45.6803C59.9065 45.7318 59.819 45.7811 59.7305 45.8284C59.6422 45.8758 59.5525 45.9209 59.4616 45.9637C59.3708 46.0066 59.2792 46.0474 59.1865 46.0858C59.0938 46.1241 59 46.1603 58.9055 46.194C58.811 46.2278 58.7157 46.2591 58.6197 46.2883C58.5237 46.3174 58.4268 46.3442 58.3295 46.3685C58.2322 46.3928 58.1342 46.4148 58.0358 46.4345C57.9374 46.454 57.8383 46.4711 57.739 46.4858C57.6397 46.5005 57.5402 46.5127 57.4403 46.5226C57.3403 46.5322 57.2404 46.5397 57.14 46.5445C57.0398 46.5493 56.9394 46.552 56.839 46.5517C56.7387 46.5517 56.6385 46.5493 56.5381 46.5443C56.4379 46.5392 56.3378 46.532 56.238 46.5219C56.1381 46.5121 56.0386 46.4998 55.9393 46.4851C55.84 46.4702 55.7411 46.4531 55.6425 46.4334C55.5441 46.4139 55.4464 46.3917 55.3488 46.3674C55.2515 46.3429 55.1548 46.3161 55.0588 46.287C54.9628 46.2578 54.8675 46.2263 54.773 46.1923C54.6786 46.1585 54.585 46.1224 54.4922 46.0838C54.3995 46.0454 54.3077 46.0047 54.2169 45.9617C54.1262 45.9187 54.0368 45.8736 53.9482 45.8262C53.8597 45.7789 53.7724 45.7294 53.6863 45.6776C53.6004 45.6261 53.5156 45.5724 53.4321 45.5165C53.3488 45.4606 53.2666 45.4028 53.1861 45.3429C53.1055 45.2831 53.0263 45.2213 52.949 45.1577C52.8714 45.094 52.7953 45.0284 52.721 44.9609C52.6467 44.8934 52.574 44.8241 52.5032 44.7531C50.7032 42.9532 50.2581 40.3033 51.1681 38.0856L42.8981 29.8156V51.5783C43.5024 51.8772 44.044 52.2639 44.5231 52.7382C44.5942 52.8092 44.6632 52.8817 44.7307 52.956C44.798 53.0303 44.8635 53.1064 44.9271 53.184C44.9909 53.2616 45.0525 53.3405 45.1123 53.4212C45.1721 53.5018 45.2298 53.5838 45.2855 53.6673C45.3414 53.7506 45.3951 53.8354 45.4466 53.9213C45.4981 54.0075 45.5476 54.0947 45.595 54.1833C45.6421 54.2718 45.6872 54.3612 45.7302 54.452C45.7729 54.5427 45.8137 54.6343 45.8521 54.727C45.8904 54.8198 45.9266 54.9133 45.9603 55.0078C45.9941 55.1023 46.0257 55.1976 46.0548 55.2936C46.084 55.3896 46.1107 55.4863 46.135 55.5836C46.1594 55.6809 46.1813 55.7787 46.201 55.8771C46.2205 55.9755 46.2376 56.0744 46.2523 56.1736C46.2672 56.2729 46.2795 56.3724 46.2893 56.4722C46.299 56.5721 46.3064 56.6721 46.3115 56.7725C46.3163 56.8726 46.3187 56.9728 46.3187 57.0732C46.3187 57.1736 46.3163 57.2737 46.3115 57.3739C46.3064 57.4743 46.299 57.5742 46.2893 57.6742C46.2795 57.7739 46.2672 57.8734 46.2523 57.9727C46.2376 58.072 46.2205 58.1708 46.201 58.2693C46.1813 58.3677 46.1594 58.4654 46.135 58.5627C46.1107 58.6601 46.084 58.7567 46.0548 58.8527C46.0257 58.9487 45.9941 59.0441 45.9603 59.1385C45.9266 59.233 45.8904 59.3266 45.8521 59.4193C45.8137 59.512 45.7729 59.6036 45.7302 59.6944C45.6872 59.7851 45.6421 59.8745 45.595 59.9631C45.5476 60.0517 45.4981 60.1389 45.4466 60.225C45.3951 60.3109 45.3414 60.3958 45.2855 60.4791C45.2298 60.5626 45.1721 60.6445 45.1123 60.7252C45.0525 60.8059 44.9909 60.8848 44.9271 60.9624C44.8635 61.0399 44.798 61.116 44.7307 61.1903C44.6632 61.2646 44.5942 61.3372 44.5231 61.4082C44.4521 61.4792 44.3796 61.5482 44.3053 61.6157C44.2308 61.683 44.1549 61.7486 44.0773 61.8121C43.9997 61.8759 43.9206 61.9375 43.8402 61.9973C43.7595 62.0572 43.6775 62.1148 43.594 62.1705C43.5107 62.2264 43.4259 62.2801 43.34 62.3316C43.2539 62.3831 43.1666 62.4326 43.0781 62.48C42.9895 62.5271 42.9001 62.5723 42.8094 62.6152C42.7186 62.6582 42.627 62.6987 42.5343 62.7371C42.4416 62.7754 42.348 62.8116 42.2535 62.8454C42.159 62.8793 42.0637 62.9107 41.9677 62.9398C41.8717 62.969 41.775 62.9957 41.6777 63.02C41.5804 63.0444 41.4826 63.0665 41.3842 63.086C41.2858 63.1055 41.187 63.1226 41.0877 63.1375C40.9884 63.1522 40.8889 63.1645 40.7892 63.1743C40.6892 63.1842 40.5893 63.1914 40.4889 63.1965C40.3887 63.2013 40.2885 63.2037 40.1881 63.2037C40.0878 63.2037 39.9876 63.2013 39.8872 63.1965C39.787 63.1914 39.6871 63.1842 39.5872 63.1743C39.4874 63.1645 39.3879 63.1522 39.2886 63.1375C39.1893 63.1226 39.0905 63.1055 38.9921 63.086C38.8937 63.0665 38.7959 63.0444 38.6986 63.02C38.6013 62.9957 38.5046 62.969 38.4086 62.9398C38.3126 62.9107 38.2173 62.8791 38.1228 62.8454C38.0283 62.8116 37.9347 62.7754 37.842 62.7371C37.7493 62.6987 37.6577 62.6582 37.5669 62.6152C37.4762 62.5723 37.3868 62.5271 37.2982 62.48C37.2097 62.4326 37.1224 62.3831 37.0363 62.3316C36.9504 62.2801 36.8656 62.2264 36.782 62.1705C36.6988 62.1148 36.6168 62.0572 36.5361 61.9973C36.4555 61.9375 36.3766 61.8759 36.299 61.8121C36.2214 61.7486 36.1453 61.683 36.071 61.6157C35.9967 61.5482 35.9242 61.4792 35.8532 61.4082C35.7821 61.3374 35.7129 61.2646 35.6454 61.1903C35.5779 61.116 35.5123 61.0402 35.4485 60.9626C35.385 60.8852 35.3232 60.8061 35.2633 60.7254C35.2035 60.645 35.1456 60.563 35.0897 60.4795C35.0341 60.3962 34.9801 60.3114 34.9286 60.2255C34.8769 60.1393 34.8274 60.0521 34.78 59.9635C34.7327 59.8752 34.6875 59.7856 34.6446 59.6948C34.6016 59.6041 34.5608 59.5125 34.5225 59.4197C34.4841 59.327 34.448 59.2334 34.414 59.139C34.3802 59.0445 34.3487 58.9492 34.3195 58.8532C34.2904 58.7572 34.2636 58.6605 34.2391 58.5632C34.2148 58.4659 34.1928 58.3679 34.1731 58.2695C34.1536 58.1711 34.1363 58.0722 34.1216 57.9729C34.1069 57.8736 34.0947 57.7741 34.0848 57.6742C34.0749 57.5744 34.0675 57.4743 34.0626 57.3741C34.0576 57.2739 34.0552 57.1736 34.0552 57.0732C34.0552 56.9728 34.0576 56.8726 34.0626 56.7722C34.0675 56.6721 34.0749 56.5719 34.0848 56.4722C34.0947 56.3722 34.1069 56.2727 34.1216 56.1734C34.1363 56.0741 34.1536 55.9753 34.1731 55.8769C34.1928 55.7785 34.2148 55.6805 34.2391 55.5832C34.2636 55.4859 34.2904 55.3892 34.3195 55.2932C34.3487 55.1972 34.3802 55.1018 34.414 55.0074C34.448 54.9129 34.4841 54.8193 34.5225 54.7266C34.5608 54.6339 34.6016 54.5423 34.6446 54.4515C34.6875 54.3608 34.7327 54.2714 34.78 54.1828C34.8274 54.0943 34.8769 54.007 34.9286 53.9209C34.9801 53.835 35.0341 53.7501 35.0897 53.6669C35.1456 53.5833 35.2035 53.5014 35.2633 53.4209C35.3232 53.3403 35.385 53.2611 35.4485 53.1838C35.5123 53.1062 35.5779 53.0303 35.6454 52.956C35.7129 52.8817 35.7821 52.809 35.8532 52.7382C36.4456 52.1481 37.1031 51.7008 37.8606 51.4007V29.4357C37.1306 29.1357 36.4456 28.6932 35.8532 28.0983C35.7462 27.9916 35.6434 27.8809 35.5448 27.7667C35.4461 27.6523 35.3519 27.5343 35.2618 27.4131C35.1719 27.2917 35.0864 27.1672 35.0058 27.0396C34.9249 26.9121 34.8491 26.7817 34.7778 26.6484C34.7068 26.5151 34.6406 26.3795 34.5797 26.2412C34.5185 26.1031 34.4627 25.963 34.412 25.8205C34.3612 25.6783 34.3158 25.5345 34.2759 25.3888C34.2358 25.2432 34.2012 25.0961 34.172 24.948C34.1429 24.7998 34.1192 24.6508 34.101 24.5008C34.0828 24.3509 34.0701 24.2006 34.0631 24.0496C34.0561 23.8988 34.0548 23.7477 34.0589 23.5969C34.0629 23.4459 34.0727 23.2951 34.0879 23.145C34.1032 22.9946 34.124 22.8451 34.1503 22.6965C34.1766 22.5477 34.2084 22.4002 34.2457 22.2538C34.2829 22.1074 34.3257 21.9627 34.3737 21.8194C34.4215 21.6762 34.4747 21.5351 34.5332 21.3957L25.4582 12.3257L1.50807 36.2506C1.44845 36.3102 1.39037 36.3714 1.3336 36.4338C1.27683 36.4963 1.22182 36.5601 1.16834 36.6252C1.11464 36.6905 1.06291 36.7569 1.0125 36.8246C0.962304 36.8924 0.913646 36.9612 0.866741 37.0313C0.819836 37.1015 0.774684 37.1727 0.731286 37.245C0.687888 37.3173 0.646462 37.3908 0.606571 37.4651C0.566899 37.5394 0.528761 37.6148 0.492815 37.6911C0.45665 37.7671 0.422457 37.8443 0.390237 37.9223C0.357798 38.0001 0.327551 38.0788 0.299057 38.1581C0.270563 38.2377 0.244261 38.3177 0.219713 38.3984C0.195164 38.479 0.172589 38.5603 0.152205 38.6421C0.131601 38.7241 0.11319 38.8063 0.0967513 38.8889C0.0803126 38.9717 0.0658465 39.0548 0.0533531 39.1383C0.0410789 39.2216 0.0307773 39.3053 0.0224483 39.3893C0.0141194 39.4732 0.00798227 39.5574 0.00381778 39.6416C-0.000346704 39.7257 -0.00231934 39.8101 -0.00231934 39.8945C-0.00231934 39.9789 -0.000346704 40.0631 0.00381778 40.1472C0.00798227 40.2316 0.0141194 40.3158 0.0224483 40.3995C0.0307773 40.4834 0.0410789 40.5672 0.0533531 40.6507C0.0658465 40.7342 0.0803126 40.8173 0.0967513 40.8999C0.11319 40.9825 0.131601 41.0649 0.152205 41.1467C0.172589 41.2284 0.195164 41.3098 0.219713 41.3904C0.244261 41.4713 0.270563 41.5513 0.299057 41.6306C0.327551 41.71 0.357798 41.7887 0.390237 41.8667C0.422457 41.9445 0.45665 42.0217 0.492815 42.0979C0.528761 42.1742 0.566899 42.2494 0.606571 42.3237C0.646462 42.3982 0.687888 42.4714 0.731286 42.5438C0.774684 42.6161 0.819836 42.6873 0.866741 42.7575C0.913646 42.8276 0.962304 42.8966 1.0125 42.9644C1.06291 43.0321 1.11464 43.0985 1.16834 43.1636C1.22182 43.2287 1.27683 43.2927 1.3336 43.3552C1.39037 43.4176 1.44845 43.4786 1.50807 43.5382L36.4381 78.4632C36.4978 78.5229 36.5587 78.5809 36.6212 78.6375C36.6836 78.6942 36.7474 78.7493 36.8127 78.8027C36.8778 78.8562 36.9442 78.9082 37.012 78.9584C37.0797 79.0086 37.1485 79.0572 37.2187 79.1041C37.2888 79.1508 37.36 79.196 37.4321 79.2394C37.5045 79.2828 37.5779 79.3242 37.6522 79.3641C37.7265 79.4037 37.8019 79.4417 37.8782 79.4776C37.9542 79.5138 38.0314 79.548 38.1092 79.5802C38.187 79.6124 38.2657 79.6429 38.345 79.6712C38.4246 79.6996 38.5046 79.7262 38.5853 79.7505C38.6659 79.775 38.747 79.7976 38.829 79.818C38.9108 79.8386 38.9929 79.857 39.0756 79.8735C39.1582 79.8899 39.2413 79.9044 39.3248 79.9166C39.4081 79.9291 39.4918 79.9394 39.5758 79.9478C39.6595 79.9559 39.7436 79.9622 39.8278 79.9662C39.912 79.9703 39.9964 79.9725 40.0805 79.9725C40.1649 79.9725 40.2493 79.9703 40.3335 79.9662C40.4176 79.9622 40.5016 79.9559 40.5855 79.9478C40.6695 79.9394 40.7532 79.9291 40.8365 79.9166C40.92 79.9044 41.0031 79.8899 41.0857 79.8735C41.1683 79.857 41.2505 79.8386 41.3323 79.818C41.4143 79.7976 41.4954 79.775 41.576 79.7505C41.6567 79.7262 41.7367 79.6996 41.8162 79.6712C41.8956 79.6429 41.9741 79.6124 42.0521 79.5802C42.1299 79.548 42.207 79.5138 42.2831 79.4776C42.3594 79.4417 42.4348 79.4037 42.5091 79.3641C42.5834 79.3242 42.6568 79.2828 42.7289 79.2394C42.8013 79.196 42.8725 79.1508 42.9426 79.1041C43.0128 79.0572 43.0816 79.0086 43.1493 78.9584C43.217 78.9082 43.2835 78.8562 43.3485 78.8027C43.4139 78.7493 43.4776 78.6942 43.5401 78.6375C43.6026 78.5809 43.6635 78.5229 43.7231 78.4632L78.4906 43.7506C78.5502 43.6912 78.6085 43.63 78.6653 43.5676C78.7218 43.5051 78.7771 43.4413 78.8305 43.3762C78.884 43.3109 78.936 43.2445 78.9862 43.1768C79.0366 43.109 79.085 43.0402 79.1319 42.9701C79.1788 42.8999 79.224 42.8287 79.2674 42.7564C79.3108 42.684 79.3524 42.6106 79.3921 42.5363C79.432 42.462 79.4699 42.3866 79.5061 42.3103C79.542 42.2341 79.5762 42.1571 79.6086 42.0791C79.6409 42.0013 79.6713 41.9226 79.6996 41.8433C79.7281 41.7637 79.7546 41.6837 79.7792 41.603C79.8037 41.5224 79.8261 41.4411 79.8467 41.3593C79.867 41.2773 79.8857 41.1951 79.9021 41.1125C79.9186 41.0296 79.933 40.9466 79.9453 40.8631C79.9578 40.7798 79.9681 40.696 79.9764 40.6121C79.9845 40.5282 79.9909 40.444 79.995 40.3598C79.9992 40.2757 80.0012 40.1913 80.0012 40.1069C80.0012 40.0225 79.9992 39.9383 79.995 39.854C79.9909 39.7698 79.9845 39.6856 79.9764 39.6017C79.9681 39.5177 79.9578 39.4342 79.9453 39.3507C79.933 39.2672 79.9186 39.1841 79.9021 39.1015C79.8857 39.0186 79.867 38.9365 79.8467 38.8547C79.8261 38.7729 79.8037 38.6916 79.7792 38.611C79.7546 38.5301 79.7281 38.4501 79.6996 38.3707C79.6713 38.2914 79.6409 38.2127 79.6086 38.1347C79.5762 38.0569 79.542 37.9797 79.5061 37.9034C79.4699 37.8272 79.432 37.752 79.3921 37.6775C79.3524 37.6032 79.3108 37.5297 79.2674 37.4574C79.224 37.3851 79.1788 37.3141 79.1319 37.2439C79.085 37.1738 79.0366 37.1047 78.9862 37.037C78.936 36.9693 78.884 36.9029 78.8305 36.8378C78.7771 36.7727 78.7218 36.7087 78.6653 36.6462C78.6085 36.5837 78.5502 36.5228 78.4906 36.4632" fill="#F03C2E"/>
</g>
</svg>
