<svg width="80" height="80" viewBox="0 0 80 80" fill="none" xmlns="http://www.w3.org/2000/svg">
<mask id="mask0_123_161" style="mask-type:luminance" maskUnits="userSpaceOnUse" x="2" y="2" width="76" height="76">
<path d="M2.10217 2.7196H77.9022V77.3863H2.10217V2.7196Z" fill="white"/>
</mask>
<g mask="url(#mask0_123_161)">
<path d="M40.0022 2.73279C19.072 2.73279 2.10217 19.7026 2.10217 40.6328C2.10217 58.3922 14.3313 73.2522 30.8178 77.3642C30.6409 76.8526 30.5272 76.2588 30.5272 75.523V69.0451C28.989 69.0451 26.412 69.0451 25.7645 69.0451C23.1713 69.0451 20.8659 67.9303 19.7478 65.8584C18.5065 63.5559 18.2918 60.0345 15.2155 57.8805C14.3028 57.1636 14.9976 56.3455 16.0495 56.4561C17.9918 57.0057 19.6026 58.3384 21.1184 60.3155C22.6282 62.2959 23.3388 62.7442 26.1593 62.7442C27.5268 62.7442 29.5734 62.6653 31.4999 62.3622C32.5359 59.7313 34.3268 57.3088 36.5153 56.1655C23.8947 54.8674 17.8718 48.5886 17.8718 40.0642C17.8718 36.3942 19.4351 32.8445 22.0913 29.8534C21.2197 26.8847 20.1236 20.8301 22.4261 18.5245C28.1047 18.5245 31.5378 22.2072 32.3622 23.202C35.192 22.2324 38.2999 21.6828 41.5655 21.6828C44.8376 21.6828 47.958 22.2324 50.7942 23.2082C51.609 22.2197 55.0453 18.5245 60.7365 18.5245C63.0486 20.8332 61.9399 26.913 61.0588 29.8755C63.6992 32.8601 65.253 36.4007 65.253 40.0642C65.253 48.5824 59.2397 54.858 46.6378 56.1624C50.1057 57.972 52.6355 63.057 52.6355 66.888V75.523C52.6355 75.8513 52.5628 76.0882 52.5249 76.3692C67.2934 71.1928 77.9022 57.1699 77.9022 40.6328C77.9022 19.7026 60.9324 2.73279 40.0022 2.73279Z" fill="black"/>
</g>
</svg>
