<svg width="80" height="80" viewBox="0 0 80 80" fill="none" xmlns="http://www.w3.org/2000/svg">
<path d="M33.2639 42.3092C33.2639 42.3092 31.2508 43.5342 34.6641 43.8844C38.7776 44.4094 40.9655 44.3219 45.5164 43.4469C45.5164 43.4469 46.7416 44.2344 48.4045 44.8469C38.1649 49.2223 25.2116 44.5842 33.2641 42.3092H33.2639ZM31.9512 36.6212C31.9512 36.6212 29.7633 38.2837 33.1764 38.6342C37.6399 39.0717 41.1408 39.159 47.1793 37.934C47.1793 37.934 47.967 38.809 49.2797 39.2465C36.9397 42.9219 23.111 39.5965 31.9508 36.6215L31.9512 36.6212ZM56.1068 46.596C56.1068 46.596 57.5945 47.821 54.4439 48.7837C48.5799 50.534 29.8516 51.059 24.5997 48.7837C22.7618 47.9965 26.2626 46.8585 27.4001 46.6835C28.5378 46.421 29.1505 46.421 29.1505 46.421C27.1378 45.021 15.7601 49.3087 23.3743 50.534C44.291 53.9467 61.5322 49.0465 56.1066 46.5958L56.1068 46.596ZM34.2272 30.67C34.2272 30.67 24.6878 32.945 30.8141 33.7327C33.4397 34.0827 38.6033 33.9952 43.4168 33.645C47.3549 33.295 51.2935 32.5948 51.2935 32.5948C51.2935 32.5948 49.8933 33.2073 48.9303 33.8198C39.216 36.3575 20.5749 35.2198 25.9128 32.5948C30.4637 30.4071 34.227 30.6696 34.227 30.6696L34.2272 30.67ZM51.2933 40.2081C61.0951 35.1327 56.5443 30.2325 53.3937 30.845C52.606 31.0198 52.256 31.1948 52.256 31.1948C52.256 31.1948 52.5185 30.6698 53.131 30.4948C59.3447 28.3071 64.246 37.0575 51.1183 40.4704C51.1183 40.4704 51.2058 40.3827 51.2933 40.2079V40.2081ZM35.1897 54.0342C44.6416 54.6467 59.0805 53.6842 59.433 49.2212C59.433 49.2212 58.7328 50.9715 51.6439 52.284C43.5922 53.7717 33.6153 53.5965 27.753 52.634C27.753 52.634 28.9783 53.6842 35.192 54.034L35.1897 54.0342Z" fill="#4E7896"/>
<mask id="mask0_123_211" style="mask-type:luminance" maskUnits="userSpaceOnUse" x="19" y="1" width="40" height="78">
<path d="M19.679 1.79236H58.5057V78.1863H19.679V1.79236Z" fill="white"/>
</mask>
<g mask="url(#mask0_123_211)">
<path d="M45.3408 1.79236C45.3408 1.79236 50.7671 7.30507 40.1773 15.6182C31.6881 22.3563 38.2518 26.2067 40.1773 30.5819C35.1887 26.119 31.6004 22.1813 34.051 18.5061C37.6398 13.0807 47.53 10.4571 45.3414 1.79236H45.3408ZM42.5421 26.9071C45.08 29.7949 41.8418 32.4203 41.8418 32.4203C41.8418 32.4203 48.3181 29.0951 45.3425 24.9821C42.6293 21.0444 40.5289 19.1194 51.9062 12.558C51.9062 12.558 33.9652 17.0209 42.5416 26.909L42.5421 26.9071ZM36.0643 73.8969V65.3213C36.0643 63.1334 34.8391 61.6459 31.776 61.6459C30.0256 61.6459 28.5379 62.0834 27.225 62.6067L27.6627 64.1819C28.6237 63.8319 29.8506 63.4819 31.1635 63.4819C32.8264 63.4819 33.6139 64.1819 33.6139 65.5821V66.7197H32.7389C28.5379 66.7197 26.6125 68.2949 26.6125 70.8324C26.6125 72.9326 27.9252 74.1578 30.2883 74.1578C31.7762 74.1578 32.9139 73.4576 33.9643 72.5826L34.1393 73.8951H36.0648L36.0643 73.8969ZM33.6137 71.0967C32.7387 71.8844 31.776 72.3219 30.9006 72.3219C29.7629 72.3219 29.0629 71.6217 29.0629 70.3967C29.0629 69.1715 29.7631 68.2965 32.5635 68.2965H33.6139V71.0949L33.6137 71.0967ZM44.2912 73.8969H41.2281L37.5527 61.9084H40.1783L42.4537 69.259L42.9787 71.4465C44.1164 68.2963 44.9918 65.0586 45.3418 61.9084H47.9673C47.2671 65.8463 46.0418 70.134 44.2918 73.8969H44.2912ZM58.4689 73.8969V65.3213C58.4689 63.1334 57.2437 61.6459 54.1806 61.6459C52.4302 61.6459 50.9425 62.0834 49.6296 62.6067L49.9798 64.1819C51.0302 63.8319 52.2552 63.4819 53.5681 63.4819C55.231 63.4819 56.0185 64.1819 56.0185 65.5821V66.7197H55.1435C50.9427 66.7197 49.0173 68.2949 49.0173 70.8324C49.0173 72.9326 50.2425 74.1578 52.6054 74.1578C54.1808 74.1578 55.3185 73.4576 56.3685 72.5826L56.5435 73.8951H58.4689V73.8969ZM56.0185 71.0967C55.1435 71.8844 54.1808 72.3219 53.3054 72.3219C52.1677 72.3219 51.4677 71.6217 51.4677 70.3967C51.4677 69.1715 52.1679 68.2965 54.9683 68.2965H56.0187V71.0949L56.0185 71.0967ZM23.9 75.9096C23.1998 76.9601 22.1496 77.7471 20.8366 78.1849L19.6983 76.7857C20.5733 76.2607 21.4487 75.4732 21.7987 74.7728C22.1487 74.1603 22.2364 73.2851 22.2364 71.2726V57.6215H24.8621V71.0978C24.8621 73.8103 24.5996 74.8605 23.901 75.9107L23.9 75.9096Z" fill="#F58219"/>
</g>
</svg>
